<svg width="71" height="67" viewBox="0 0 71 67" fill="none" xmlns="http://www.w3.org/2000/svg">
<path fill-rule="evenodd" clip-rule="evenodd" d="M68.7702 1.19266C63.893 34.5764 33.9389 50.792 2.66835 54.479C2.13137 54.5433 1.7453 55.0308 1.80963 55.5678C1.87397 56.1048 2.36143 56.4908 2.8984 56.4265C35.0449 52.638 65.6968 35.7939 70.7102 1.47473C70.7894 0.940232 70.4182 0.442855 69.8812 0.363671C69.3467 0.284486 68.8494 0.655688 68.7702 1.19266Z" fill="#85C349"/>
<path fill-rule="evenodd" clip-rule="evenodd" d="M3.37032 55.3841C4.761 54.367 6.52039 53.11 6.71588 52.9615C12.0138 48.9379 16.4036 44.3081 20.2688 38.8765C20.5831 38.4361 20.4791 37.8224 20.0387 37.5081C19.5982 37.1938 18.9846 37.2978 18.6703 37.7383C14.9239 43.0065 10.6677 47.4978 5.52816 51.4001C5.22874 51.6278 1.27191 54.4512 0.51471 55.0822C0.20292 55.3395 0.106481 55.582 0.0891592 55.6414C-0.0147707 55.9532 0.047073 56.1982 0.131207 56.3764C0.227713 56.5768 0.467679 56.8688 0.932889 57.0173C1.42037 57.1707 2.50426 57.24 2.77646 57.2796C6.88169 57.8883 11.5165 58.21 15.7356 59.378C19.7591 60.4915 23.409 62.3771 25.7499 66.1557C26.0345 66.6159 26.6407 66.757 27.101 66.4724C27.5612 66.1878 27.7023 65.5816 27.4178 65.1213C24.7997 60.8973 20.7563 58.7321 16.2601 57.4874C12.0658 56.3269 7.47308 55.9755 3.37032 55.3841Z" fill="#85C349"/>
</svg>
