<svg width="1440" height="932" viewBox="0 0 1440 932" fill="none" xmlns="http://www.w3.org/2000/svg">
<path opacity="0.6" d="M-280 2H-230M-230 2H-130M-230 2V-48M-230 2V102M-130 2H-30M-130 2V-48M-130 2V102M-30 2H70M-30 2V-48M-30 2V102M70 2H170M70 2V-48M70 2V102M170 2H270M170 2V-48M170 2V102M270 2H370M270 2V-48M270 2V102M370 2H470M370 2V-48M370 2V102M470 2H570M470 2V-48M470 2V102M570 2H670M570 2V-48M570 2V102M670 2H720M670 2V-48M670 2V102M-230 102V202M-230 102H-280M-230 102H-130M-230 202V302M-230 202H-280M-230 202H-130M-230 302V402M-230 302H-280M-230 302H-130M-230 402H-280M-230 402H-130M-230 402V502M-130 102V202M-130 102H-30M-130 202V302M-130 202H-30M-130 302V402M-130 302H-30M-130 402H-30M-130 402V502M-30 102V202M-30 102H70M-30 202V302M-30 202H70M-30 302V402M-30 302H70M-30 402H70M-30 402V502M70 102V202M70 102H170M70 202V302M70 202H170M70 302V402M70 302H170M70 402H170M70 402V502M170 102V202M170 102H270M170 202V302M170 202H270M170 302V402M170 302H270M170 402H270M170 402V502M270 102H370M270 102V202M370 102H470M370 102V202M470 102H570M470 102V202M570 102H670M570 102V202M670 102H720M670 102V202M270 202H370M270 202V302M370 202H470M370 202V302M470 202H570M470 202V302M570 202H670M570 202V302M670 202H720M670 202V302M270 302H370M270 302V402M370 302H470M370 302V402M470 302H570M470 302V402M570 302H670M570 302V402M670 302H720M670 302V402M270 402H370M270 402V502M370 402H470M370 402V502M470 402H570M470 402V502M570 402H670M570 402V502M670 402H720M670 402V502M-280 502H-230M-230 502H-130M-230 502V602M-130 502H-30M-130 502V602M-30 502H70M-30 502V602M70 502H170M70 502V602M170 502H270M170 502V602M270 502H370M270 502V602M370 502H470M370 502V602M470 502H570M470 502V602M570 502H670M570 502V602M670 502H720M670 502V602M-230 602V702M-230 602H-280M-230 602H-130M-230 702V802M-230 702H-280M-230 702H-130M-230 802V902M-230 802H-280M-230 802H-130M-230 902V952M-230 902H-280M-230 902H-130M-130 602V702M-130 602H-30M-130 702V802M-130 702H-30M-130 802V902M-130 802H-30M-130 902V952M-130 902H-30M-30 602V702M-30 602H70M-30 702V802M-30 702H70M-30 802V902M-30 802H70M-30 902V952M-30 902H70M70 602V702M70 602H170M70 702V802M70 702H170M70 802V902M70 802H170M70 902V952M70 902H170M170 602V702M170 602H270M170 702V802M170 702H270M170 802V902M170 802H270M170 902V952M170 902H270M270 602H370M270 602V702M370 602H470M370 602V702M470 602H570M470 602V702M570 602H670M570 602V702M670 602H720M670 602V702M270 702H370M270 702V802M370 702H470M370 702V802M470 702H570M470 702V802M570 702H670M570 702V802M670 702H720M670 702V802M270 802H370M270 802V902M370 802H470M370 802V902M470 802H570M470 802V902M570 802H670M570 802V902M670 802H720M670 802V902M270 902H370M270 902V952M370 902H470M370 902V952M470 902H570M470 902V952M570 902H670M570 902V952M670 902H720M670 902V952" stroke="#E5F3D4" stroke-linecap="round"/>
<path opacity="0.6" d="M720 2H770M770 2H870M770 2V-48M770 2V102M870 2H970M870 2V-48M870 2V102M970 2H1070M970 2V-48M970 2V102M1070 2H1170M1070 2V-48M1070 2V102M1170 2H1270M1170 2V-48M1170 2V102M1270 2H1370M1270 2V-48M1270 2V102M1370 2H1470M1370 2V-48M1370 2V102M1470 2H1570M1470 2V-48M1470 2V102M1570 2H1670M1570 2V-48M1570 2V102M1670 2H1720M1670 2V-48M1670 2V102M770 102V202M770 102H720M770 102H870M770 202V302M770 202H720M770 202H870M770 302V402M770 302H720M770 302H870M770 402H720M770 402H870M770 402V502M870 102V202M870 102H970M870 202V302M870 202H970M870 302V402M870 302H970M870 402H970M870 402V502M970 102V202M970 102H1070M970 202V302M970 202H1070M970 302V402M970 302H1070M970 402H1070M970 402V502M1070 102V202M1070 102H1170M1070 202V302M1070 202H1170M1070 302V402M1070 302H1170M1070 402H1170M1070 402V502M1170 102V202M1170 102H1270M1170 202V302M1170 202H1270M1170 302V402M1170 302H1270M1170 402H1270M1170 402V502M1270 102H1370M1270 102V202M1370 102H1470M1370 102V202M1470 102H1570M1470 102V202M1570 102H1670M1570 102V202M1670 102H1720M1670 102V202M1270 202H1370M1270 202V302M1370 202H1470M1370 202V302M1470 202H1570M1470 202V302M1570 202H1670M1570 202V302M1670 202H1720M1670 202V302M1270 302H1370M1270 302V402M1370 302H1470M1370 302V402M1470 302H1570M1470 302V402M1570 302H1670M1570 302V402M1670 302H1720M1670 302V402M1270 402H1370M1270 402V502M1370 402H1470M1370 402V502M1470 402H1570M1470 402V502M1570 402H1670M1570 402V502M1670 402H1720M1670 402V502M720 502H770M770 502H870M770 502V602M870 502H970M870 502V602M970 502H1070M970 502V602M1070 502H1170M1070 502V602M1170 502H1270M1170 502V602M1270 502H1370M1270 502V602M1370 502H1470M1370 502V602M1470 502H1570M1470 502V602M1570 502H1670M1570 502V602M1670 502H1720M1670 502V602M770 602V702M770 602H720M770 602H870M770 702V802M770 702H720M770 702H870M770 802V902M770 802H720M770 802H870M770 902V952M770 902H720M770 902H870M870 602V702M870 602H970M870 702V802M870 702H970M870 802V902M870 802H970M870 902V952M870 902H970M970 602V702M970 602H1070M970 702V802M970 702H1070M970 802V902M970 802H1070M970 902V952M970 902H1070M1070 602V702M1070 602H1170M1070 702V802M1070 702H1170M1070 802V902M1070 802H1170M1070 902V952M1070 902H1170M1170 602V702M1170 602H1270M1170 702V802M1170 702H1270M1170 802V902M1170 802H1270M1170 902V952M1170 902H1270M1270 602H1370M1270 602V702M1370 602H1470M1370 602V702M1470 602H1570M1470 602V702M1570 602H1670M1570 602V702M1670 602H1720M1670 602V702M1270 702H1370M1270 702V802M1370 702H1470M1370 702V802M1470 702H1570M1470 702V802M1570 702H1670M1570 702V802M1670 702H1720M1670 702V802M1270 802H1370M1270 802V902M1370 802H1470M1370 802V902M1470 802H1570M1470 802V902M1570 802H1670M1570 802V902M1670 802H1720M1670 802V902M1270 902H1370M1270 902V952M1370 902H1470M1370 902V952M1470 902H1570M1470 902V952M1570 902H1670M1570 902V952M1670 902H1720M1670 902V952" stroke="#E5F3D4" stroke-linecap="round"/>
</svg>
