<svg width="619" height="30" viewBox="0 0 619 30" fill="none" xmlns="http://www.w3.org/2000/svg">
<path d="M568.319 26.8766C569.635 26.6118 570.512 25.4424 570.786 24.8907H505.414C505.688 25.4424 506.566 26.6118 507.881 26.8766C508.018 27.6488 508.621 29.1934 509.937 29.1934H566.264C567.579 29.1934 568.182 27.6488 568.319 26.8766Z" fill="url(#paint0_linear_1244_5083)"/>
<path fill-rule="evenodd" clip-rule="evenodd" d="M568.261 27.1474V27.0416H507.917C508.105 27.8491 508.712 29.1925 509.939 29.1925H566.266C567.441 29.1925 568.047 27.9609 568.261 27.1474Z" fill="url(#paint1_linear_1244_5083)"/>
<mask id="mask0_1244_5083" style="mask-type:alpha" maskUnits="userSpaceOnUse" x="-362" y="0" width="981" height="25">
<path d="M619 3.3747V0.797119H-362V3.3747C-362 10.9064 -362 14.6723 -359.89 17.549C-358.033 20.0794 -355.071 22.1368 -351.428 23.4261C-347.287 24.8919 -341.865 24.8919 -331.021 24.8919H588.021C598.865 24.8919 604.287 24.8919 608.428 23.4261C612.071 22.1368 615.033 20.0794 616.89 17.549C619 14.6723 619 10.9064 619 3.3747Z" fill="white"/>
</mask>
<g mask="url(#mask0_1244_5083)">
<path d="M619 3.3747V0.797119H-362V3.3747C-362 10.9064 -362 14.6723 -359.89 17.549C-358.033 20.0794 -355.071 22.1368 -351.428 23.4261C-347.287 24.8919 -341.865 24.8919 -331.021 24.8919H588.021C598.865 24.8919 604.287 24.8919 608.428 23.4261C612.071 22.1368 615.033 20.0794 616.89 17.549C619 14.6723 619 10.9064 619 3.3747Z" fill="url(#paint2_linear_1244_5083)"/>
<rect x="508.854" y="0.797241" width="110.147" height="24.0947" fill="url(#paint3_linear_1244_5083)"/>
<g filter="url(#filter0_f_1244_5083)">
<path d="M616.848 -3.50525H604.37V9.18752C604.37 12.6331 607.164 15.4263 610.609 15.4263C614.055 15.4263 616.848 12.6331 616.848 9.18752V-3.50525Z" fill="url(#paint4_linear_1244_5083)"/>
</g>
</g>
<path d="M40.2976 0.797363H216.706C216.706 7.45094 211.312 12.8447 204.658 12.8447H52.345C45.6914 12.8447 40.2976 7.45094 40.2976 0.797363Z" fill="url(#paint5_linear_1244_5083)"/>
<defs>
<filter id="filter0_f_1244_5083" x="601.789" y="-6.08683" width="17.6408" height="24.0947" filterUnits="userSpaceOnUse" color-interpolation-filters="sRGB">
<feFlood flood-opacity="0" result="BackgroundImageFix"/>
<feBlend mode="normal" in="SourceGraphic" in2="BackgroundImageFix" result="shape"/>
<feGaussianBlur stdDeviation="1.29079" result="effect1_foregroundBlur_1244_5083"/>
</filter>
<linearGradient id="paint0_linear_1244_5083" x1="505.414" y1="27.0421" x2="570.786" y2="27.0421" gradientUnits="userSpaceOnUse">
<stop stop-color="#8C8D91"/>
<stop offset="0.173014" stop-color="#525358"/>
<stop offset="0.31824" stop-color="#78797D"/>
<stop offset="0.465029" stop-color="#A0A0A2"/>
<stop offset="0.691458" stop-color="#9A9A9C"/>
<stop offset="0.825754" stop-color="#4F5055"/>
<stop offset="0.941311" stop-color="#9E9EA0"/>
<stop offset="1" stop-color="#848589"/>
</linearGradient>
<linearGradient id="paint1_linear_1244_5083" x1="507.917" y1="28.1171" x2="568.261" y2="28.1171" gradientUnits="userSpaceOnUse">
<stop stop-color="#575757"/>
<stop offset="0.0827846" stop-color="#2D2D2D"/>
<stop offset="0.490477" stop-color="#4E4E4E"/>
<stop offset="0.824814" stop-color="#2A2A2A"/>
<stop offset="1" stop-color="#5C5C5C"/>
</linearGradient>
<linearGradient id="paint2_linear_1244_5083" x1="128.5" y1="0.797119" x2="128.5" y2="24.8919" gradientUnits="userSpaceOnUse">
<stop stop-color="#DADBDD"/>
<stop offset="0.213542" stop-color="#D6D7D9"/>
<stop offset="0.498033" stop-color="#C7C8CA"/>
<stop offset="0.625903" stop-color="#949597"/>
<stop offset="0.772278" stop-color="#858688"/>
<stop offset="0.880208" stop-color="#D2D3D5"/>
<stop offset="1" stop-color="#999A9C"/>
</linearGradient>
<linearGradient id="paint3_linear_1244_5083" x1="619.001" y1="13.2097" x2="508.854" y2="13.2097" gradientUnits="userSpaceOnUse">
<stop offset="0.0728023" stop-color="#A9AAAC"/>
<stop offset="0.259918" stop-color="#858688"/>
<stop offset="1" stop-color="#858688" stop-opacity="0"/>
</linearGradient>
<linearGradient id="paint4_linear_1244_5083" x1="616.848" y1="2.98558" x2="604.37" y2="2.98558" gradientUnits="userSpaceOnUse">
<stop offset="0.0875682" stop-color="white" stop-opacity="0.17"/>
<stop offset="0.272185" stop-color="white" stop-opacity="0.65"/>
<stop offset="0.489769" stop-color="white" stop-opacity="0.65"/>
<stop offset="0.677083" stop-color="white" stop-opacity="0.19"/>
<stop offset="1" stop-color="white" stop-opacity="0"/>
</linearGradient>
<linearGradient id="paint5_linear_1244_5083" x1="40.7146" y1="6.63851" x2="216.706" y2="6.63849" gradientUnits="userSpaceOnUse">
<stop stop-color="#25262B"/>
<stop offset="0.015659" stop-color="#606166"/>
<stop offset="0.035819" stop-color="#9FA0A4"/>
<stop offset="0.0504351" stop-color="#C8C8CE"/>
<stop offset="0.479167" stop-color="#D7D8DD"/>
<stop offset="0.941214" stop-color="#CBCBD3"/>
<stop offset="0.970403" stop-color="#A7A8AC"/>
<stop offset="0.980129" stop-color="#595A5E"/>
<stop offset="1" stop-color="#27282C"/>
</linearGradient>
</defs>
</svg>
