<svg width="199" height="132" viewBox="0 0 199 132" fill="none" xmlns="http://www.w3.org/2000/svg">
<path d="M77.5976 118.05C76.5529 124.673 70.9585 129.626 64.2571 129.86L15.3601 131.568C5.37334 131.916 -1.75279 121.991 1.77066 112.64L38.8298 14.2865C40.8218 8.99983 45.796 5.42851 51.4421 5.23135L78.6724 4.28044C87.4671 3.97333 94.361 11.7604 92.9901 20.453L77.5976 118.05ZM183.232 114.361C182.187 120.984 176.593 125.937 169.891 126.171L121.46 127.862C111.473 128.211 104.347 118.286 107.87 108.935L144.929 10.5814C146.921 5.29475 151.896 1.72344 157.542 1.52627L184.307 0.591619C193.101 0.284502 199.995 8.07154 198.624 16.7641L183.232 114.361Z" fill="#F3FAEB"/>
</svg>
