<svg width="43" height="47" viewBox="0 0 43 47" fill="none" xmlns="http://www.w3.org/2000/svg">
<path fill-rule="evenodd" clip-rule="evenodd" d="M14.3872 43.8602C10.2813 42.7107 5.98261 42.1308 1.81258 41.5996C0.914417 41.4882 0.0805359 42.1097 0.0163816 42.9853C-0.111927 43.8615 0.529992 44.6628 1.364 44.7741C5.40572 45.2855 9.57538 45.8328 13.4888 46.9394C14.3228 47.1794 15.2213 46.6853 15.478 45.8353C15.7346 44.986 15.2212 44.1008 14.3872 43.8602Z" fill="#85C349"/>
<path fill-rule="evenodd" clip-rule="evenodd" d="M26.8326 27.563C20.2247 20.8356 12.7828 14.9742 6.30322 8.06629C5.72583 7.42113 4.69936 7.38657 4.05782 7.98884C3.41628 8.59176 3.35237 9.60557 3.99392 10.2507C10.4735 17.1785 17.9154 23.0591 24.5233 29.8064C25.1649 30.4362 26.1911 30.4451 26.8326 29.8256C27.41 29.2066 27.4742 28.1928 26.8326 27.563Z" fill="#85C349"/>
<path fill-rule="evenodd" clip-rule="evenodd" d="M39.2153 1.68698C39.4077 5.53743 39.5998 9.38788 39.7923 13.239C39.7923 14.1209 40.5625 14.8019 41.4607 14.7591C42.3588 14.7155 43 13.9648 43 13.0822C42.8075 9.22531 42.6155 5.3691 42.423 1.51289C42.3588 0.630919 41.5889 -0.0455981 40.6907 0.0024045C39.8567 0.0504071 39.1511 0.805651 39.2153 1.68698Z" fill="#85C349"/>
</svg>
